<?xml version="1.0" standalone="no"?>
<!DOCTYPE svg PUBLIC "-//W3C//DTD SVG 20010904//EN"
 "http://www.w3.org/TR/2001/REC-SVG-20010904/DTD/svg10.dtd">
<svg version="1.0" xmlns="http://www.w3.org/2000/svg"
 width="214.000000pt" height="322.000000pt" viewBox="0 0 214.000000 322.000000"
 preserveAspectRatio="xMidYMid meet">

<g transform="translate(0.000000,322.000000) scale(0.100000,-0.100000)"
fill="#000000" stroke="none">
<path d="M885 3140 c-175 -44 -292 -116 -435 -266 -265 -281 -414 -692 -427
-1182 -10 -339 39 -622 151 -884 163 -381 413 -629 709 -703 104 -26 267 -18
371 19 144 51 252 122 366 242 361 378 521 1064 394 1692 -94 469 -323 836
-627 1006 -158 89 -343 117 -502 76z m250 -120 c74 -12 145 -32 145 -41 0 -15
-223 -159 -246 -159 -14 0 -227 144 -231 156 -4 11 81 38 147 48 50 7 126 6
185 -4z m-380 -166 c49 -30 124 -76 165 -102 l75 -48 2 -209 3 -210 -48 -51
c-45 -48 -274 -300 -323 -355 -22 -26 -24 -26 -49 -11 -23 15 -198 141 -201
145 -1 1 -9 126 -19 277 l-18 275 47 70 c60 90 241 274 271 275 2 0 45 -25 95
-56z m712 17 c74 -60 166 -159 217 -234 37 -54 46 -77 46 -110 0 -112 -31
-512 -41 -523 -6 -7 -55 -47 -108 -88 l-98 -75 -27 32 c-27 31 -88 98 -284
312 l-92 100 0 208 0 207 97 63 c180 115 228 145 235 146 3 1 28 -17 55 -38z
m443 -750 c30 -119 60 -319 60 -394 -1 -40 -1 -41 -16 -22 -8 11 -49 80 -91
154 l-76 133 7 137 c3 75 9 170 13 211 l6 74 34 -88 c19 -49 47 -141 63 -205z
m-1630 73 l12 -201 -69 -119 c-39 -66 -80 -138 -93 -161 -13 -24 -25 -41 -27
-39 -7 7 18 242 38 343 28 145 109 397 124 381 1 -1 8 -94 15 -204z m939 -219
c25 -27 81 -89 124 -136 l77 -86 -29 -149 c-16 -82 -48 -234 -70 -338 -23
-103 -41 -190 -41 -192 0 -2 -108 -4 -240 -4 l-240 0 -5 23 c-37 157 -135 630
-135 652 0 12 89 114 249 284 64 67 118 128 120 134 4 10 30 -16 190 -188z
m-742 -177 c52 -39 93 -78 97 -91 7 -29 110 -510 131 -609 15 -75 15 -79 -5
-119 -39 -75 -110 -179 -123 -179 -15 0 -306 103 -336 119 -31 17 -84 200
-116 401 -26 163 -45 111 204 542 19 32 20 32 148 -64z m1291 27 c19 -31 71
-121 118 -202 l84 -146 -11 -91 c-15 -128 -42 -255 -79 -368 l-30 -96 -78 -29
c-42 -16 -123 -45 -179 -64 -120 -39 -101 -49 -183 98 l-52 92 41 203 c23 112
56 267 74 344 l32 142 105 86 c58 47 110 86 115 86 6 0 25 -25 43 -55z m-443
-947 c17 -29 44 -77 61 -108 l32 -55 -33 -90 c-19 -49 -60 -155 -92 -235 l-59
-145 -60 -13 c-66 -14 -262 -10 -305 6 -21 9 -36 34 -79 139 -104 253 -131
333 -119 356 6 12 34 61 61 110 l50 87 257 0 256 0 30 -52z m-851 -177 c50
-17 95 -36 102 -43 18 -20 148 -358 138 -358 -3 0 -37 24 -77 53 -116 86 -257
251 -321 374 l-16 32 42 -13 c24 -8 83 -28 132 -45z m1258 -18 c-54 -91 -158
-219 -224 -274 -56 -48 -148 -113 -148 -105 0 2 23 64 51 138 29 73 60 153 69
178 15 40 23 47 66 62 169 59 219 76 222 73 2 -2 -14 -34 -36 -72z"/>
</g>
</svg>
