<?xml version="1.0" standalone="no"?>
<!DOCTYPE svg PUBLIC "-//W3C//DTD SVG 20010904//EN"
 "http://www.w3.org/TR/2001/REC-SVG-20010904/DTD/svg10.dtd">
<svg version="1.0" xmlns="http://www.w3.org/2000/svg"
 width="211.000000pt" height="308.000000pt" viewBox="0 0 211.000000 308.000000"
 preserveAspectRatio="xMidYMid meet">

<g transform="translate(0.000000,308.000000) scale(0.100000,-0.100000)"
fill="#000000" stroke="none">
<path d="M913 2744 c-13 -3 -23 -9 -23 -14 0 -4 -15 -11 -33 -14 -21 -4 -51
-24 -83 -55 -61 -61 -64 -66 -91 -121 -60 -124 -58 -101 -58 -645 0 -454 2
-506 18 -560 10 -33 22 -67 27 -75 6 -8 16 -28 24 -45 18 -39 93 -116 131
-135 17 -8 33 -18 36 -23 3 -4 30 -12 60 -19 69 -14 160 -3 190 23 12 10 27
19 33 19 14 0 86 66 86 79 0 5 6 14 14 21 8 6 31 44 52 83 l37 72 1 550 1 550
-44 88 c-24 48 -47 87 -52 87 -5 0 -9 6 -9 14 0 8 -13 23 -30 33 -16 9 -30 21
-30 24 0 11 -60 39 -81 39 -9 0 -19 5 -21 10 -3 11 -120 21 -155 14z"/>
<path d="M150 1420 c0 -80 66 -357 91 -384 5 -6 9 -18 9 -27 0 -9 7 -22 15
-29 8 -7 26 -36 40 -66 14 -30 30 -54 35 -54 6 0 10 -6 10 -14 0 -17 167 -187
203 -205 15 -8 27 -18 27 -23 0 -4 18 -15 40 -24 22 -9 40 -20 40 -24 0 -4 29
-16 65 -25 36 -10 65 -21 65 -25 0 -4 16 -11 35 -14 l35 -7 0 -229 0 -230 120
0 120 0 0 229 0 229 40 7 c22 4 40 10 40 14 0 4 25 14 56 21 31 8 62 19 68 26
7 6 28 19 46 29 19 10 39 24 43 31 4 8 14 14 21 14 7 0 25 12 39 28 15 15 37
36 49 48 13 11 41 42 63 68 22 26 46 53 52 61 16 17 68 108 94 165 11 25 27
56 34 70 7 14 17 43 21 65 4 22 13 54 19 70 7 17 16 78 20 138 l7 107 -100 0
-99 0 -7 -82 c-12 -141 -68 -292 -143 -385 -18 -23 -33 -46 -33 -52 0 -6 -3
-11 -8 -11 -4 0 -26 -17 -49 -37 -56 -51 -63 -56 -103 -79 -19 -10 -37 -22
-40 -26 -3 -3 -32 -14 -65 -24 -108 -33 -368 -20 -408 20 -7 7 -25 16 -40 20
-15 3 -35 14 -45 24 -9 9 -30 25 -45 35 -43 28 -138 136 -168 191 -23 43 -33
64 -46 100 -26 71 -63 229 -63 269 l0 37 -100 0 -100 0 0 -40z"/>
</g>
</svg>
