<?xml version="1.0" standalone="no"?>
<!DOCTYPE svg PUBLIC "-//W3C//DTD SVG 20010904//EN"
 "http://www.w3.org/TR/2001/REC-SVG-20010904/DTD/svg10.dtd">
<svg version="1.0" xmlns="http://www.w3.org/2000/svg"
 width="189.000000pt" height="313.000000pt" viewBox="0 0 189.000000 313.000000"
 preserveAspectRatio="xMidYMid meet">

<g transform="translate(0.000000,313.000000) scale(0.100000,-0.100000)"
fill="#000000" stroke="none">
<path d="M190 1560 l0 -1480 275 0 275 0 2 737 3 737 64 -164 c35 -91 73 -192
86 -225 72 -187 237 -613 244 -630 7 -16 33 -82 65 -165 3 -8 29 -76 58 -150
l53 -135 263 -3 262 -2 0 1480 0 1480 -275 0 -275 0 -1 -527 c-1 -291 -4 -613
-8 -717 l-6 -189 -118 319 c-65 175 -122 328 -127 339 -18 44 -155 406 -190
505 -21 58 -52 142 -70 188 l-32 82 -274 0 -274 0 0 -1480z"/>
</g>
</svg>
